<?xml version="1.0" encoding="UTF-8" standalone="no"?>
<!-- Created with Inkscape (http://www.inkscape.org/) -->

<svg
   xmlns:dc="http://purl.org/dc/elements/1.1/"
   xmlns:cc="http://creativecommons.org/ns#"
   xmlns:rdf="http://www.w3.org/1999/02/22-rdf-syntax-ns#"
   xmlns:svg="http://www.w3.org/2000/svg"
   xmlns="http://www.w3.org/2000/svg"
   xmlns:sodipodi="http://sodipodi.sourceforge.net/DTD/sodipodi-0.dtd"
   xmlns:inkscape="http://www.inkscape.org/namespaces/inkscape"
   width="64"
   height="64"
   viewBox="0 0 63.999999 63.999999"
   id="svg5856"
   version="1.1"
   inkscape:version="0.91 r13725"
   sodipodi:docname="bricks.svg">
  <defs
     id="defs5858" />
  <sodipodi:namedview
     id="base"
     pagecolor="#ffffff"
     bordercolor="#666666"
     borderopacity="1.0"
     inkscape:pageopacity="0.0"
     inkscape:pageshadow="2"
     inkscape:zoom="7.9195959"
     inkscape:cx="16.102884"
     inkscape:cy="37.258557"
     inkscape:document-units="px"
     inkscape:current-layer="layer1"
     showgrid="true"
     units="px"
     inkscape:window-width="1920"
     inkscape:window-height="1017"
     inkscape:window-x="-8"
     inkscape:window-y="-8"
     inkscape:window-maximized="1">
    <inkscape:grid
       type="xygrid"
       id="grid6404" />
  </sodipodi:namedview>
  <metadata
     id="metadata5861">
    <rdf:RDF>
      <cc:Work
         rdf:about="">
        <dc:format>image/svg+xml</dc:format>
        <dc:type
           rdf:resource="http://purl.org/dc/dcmitype/StillImage" />
        <dc:title />
      </cc:Work>
    </rdf:RDF>
  </metadata>
  <g
     inkscape:label="Calque 1"
     inkscape:groupmode="layer"
     id="layer1"
     transform="translate(0,-988.3622)">
    <path
       style="fill:#000000"
       d="m 58.696416,1053.5696 c -0.01238,-0.01 -2.534009,-0.01 -5.603595,-2e-4 -3.069586,0.01 -6.029976,-0.01 -6.578643,-0.033 -2.318441,-0.1202 -9.160023,-0.3183 -11.434293,-0.331 -1.352283,-0.01 -2.595515,-0.041 -2.76274,-0.074 -0.422383,-0.084 -8.715312,0.025 -9.528646,0.1264 -0.364656,0.044 -0.991183,0.1241 -1.392292,0.1746 -0.401084,0.052 -1.147266,0.1278 -1.658156,0.17 -0.510895,0.042 -1.23614,0.1395 -1.611682,0.2155 -1.194671,0.2418 -6.275813,0.3388 -8.6806183,0.1655 -3.3185213,-0.2388 -9.42150152,-0.9709 -9.98426361,-1.1976 -0.83574649,-0.337 -0.99959759,-0.8962 -0.71206029,-2.4306 0.065949,-0.352 0.1358393,-1.3577 0.155309,-2.2353 0.019467,-0.8774 0.062632,-1.9246 0.0959099,-2.3272 0.03328,-0.4026 0.0597645,-2.3165 0.0588441,-4.2535 -9.1185e-4,-1.9369 0.001811,-3.5215 0.006047,-3.5215 0.0042,-2e-4 0.006688,-1.286 0.005436,-2.8574 -0.001252,-1.5715 0.0393554,-2.9624 0.0902422,-3.0912 0.0508818,-0.1288 0.0384904,-0.2331 -0.0275405,-0.232 -0.14469634,0 -0.14962154,-0.7375 -0.007858,-1.1793 0.0689245,-0.2148 0.0457459,-0.3508 -0.0717635,-0.4206 -0.13829046,-0.082 -0.14090276,-0.1439 -0.0128477,-0.3038 0.17346845,-0.2167 0.14663473,-1.4194 -0.0316249,-1.4164 -0.0594111,10e-4 -0.11389758,-0.2821 -0.12107428,-0.6291 -0.00713,-0.3471 -0.069482,-0.7168 -0.1384663,-0.8219 -0.068976,-0.1045 -0.087505,-0.254 -0.041184,-0.3314 0.1008183,-0.1685 -0.00868,-4.4209 -0.1460432,-5.6715 -0.07566,-0.689 -0.055654,-0.9072 0.091391,-0.9982 0.268052,-0.1658 0.36366747,-0.7045 0.1762725,-0.9931 -0.1261082,-0.1942 -0.1185229,-0.288 0.036353,-0.4484 0.15643852,-0.1619 0.29504487,-0.1768 0.69066429,-0.076 0.47786825,0.1231 0.99386579,0.095 1.99695071,-0.1129 0.2617966,-0.055 0.9141647,-0.035 1.4497152,0.042 0.535531,0.077 1.1075891,0.1584 1.2712324,0.1812 0.1636495,0.022 0.3685428,0.085 0.4553342,0.1353 0.4284376,0.2547 2.0736063,0.4216 4.9067222,0.498 1.7184207,0.047 4.4406937,0.1247 6.0495167,0.1739 3.124387,0.096 7.528746,0.1561 9.703275,0.1332 1.704597,-0.018 5.867605,-0.2951 6.302061,-0.4197 l 0.333445,-0.096 -0.0047,-2.05 c -0.0025,-1.1278 0.0032,-2.1999 0.01308,-2.3826 0.0099,-0.1829 -0.0092,-0.7965 -0.04211,-1.3631 -0.03295,-0.5668 -0.02522,-1.0665 0.01714,-1.1103 0.04237,-0.043 0.03009,-0.2075 -0.02731,-0.3633 -0.09367,-0.2545 -0.194405,-5.8872 -0.177964,-9.9492 0.0034,-0.8585 -0.02741,-1.5935 -0.06878,-1.6335 -0.04134,-0.039 -0.02862,-0.29443 0.02821,-0.56592 0.05708,-0.27255 0.04093,-1.02791 -0.03605,-1.68712 -0.182089,-1.55941 -0.392253,-4.12165 -0.3864,-4.71076 0.02719,-2.73776 -0.02708,-3.64302 -0.230226,-3.83955 -0.237444,-0.22981 -2.231513,-0.28494 -10.371596,-0.28664 -11.1410683,-0.002 -13.0841107,-0.0235 -13.9560549,-0.15093 -0.5129379,-0.0753 -1.2009607,-0.0936 -1.5289514,-0.0412 -0.3279921,0.0521 -1.4485548,0.09 -2.4901336,0.0845 -2.10619417,-0.0129 -2.69765077,-0.16951 -3.42864747,-0.90979 l -0.39646083,-0.40153 0.3049976,-0.33624 c 0.22742859,-0.25073 0.30021022,-0.48316 0.28617585,-0.91389 -0.0173953,-0.53348 0.0137945,-0.59011 0.40732454,-0.74022 0.566548,-0.21611 1.43292191,-0.22077 2.62546741,-0.0146 0.6374416,0.11043 1.5818356,0.1427 2.7043159,0.0921 0.9486515,-0.0425 2.0845251,-0.0256 2.5239994,0.0281 0.4395501,0.0581 4.3568605,0.0802 8.7051335,0.0492 4.348263,-0.0316 8.50412,-0.0472 9.235235,-0.0345 3.10581,0.0525 16.482222,-0.068 21.259027,-0.19076 6.367256,-0.16405 12.199073,-0.23343 13.352837,-0.16084 0.47574,0.0305 1.552528,0.0527 2.392887,0.0511 0.840362,-0.002 1.678359,0.0496 1.862243,0.11561 0.502399,0.17975 1.065819,0.75139 1.373023,1.39293 0.260039,0.54316 0.26325,0.59692 0.06214,1.04059 -0.121531,0.2681 -0.389905,0.55495 -0.628611,0.67183 -0.229095,0.11228 -0.584107,0.29816 -0.788915,0.41305 -0.384981,0.21607 -0.553801,0.20519 -2.816505,-0.18187 -1.068033,-0.18272 -8.032005,-0.269 -10.567019,-0.13104 -1.277846,0.0697 -5.611468,0.17878 -9.630271,0.24254 -4.018879,0.0593 -7.405026,0.14975 -7.52497,0.18966 -0.249863,0.0843 -0.414804,0.63917 -0.295348,0.99389 0.0445,0.1322 0.287502,0.33397 0.540019,0.44841 0.397518,0.18021 0.829485,0.19047 3.21903,0.0769 1.517957,-0.0717 2.806984,-0.16158 2.864527,-0.19851 0.209823,-0.1347 1.443802,0.0951 1.519698,0.28314 0.04219,0.10388 0.0418,0.22607 -8.84e-4,0.2703 -0.04269,0.0438 -0.781379,0.11498 -1.641567,0.15755 -0.860198,0.0419 -1.981184,0.15743 -2.491099,0.2554 -0.509906,0.0983 -1.40531,0.19021 -1.989773,0.20461 -1.177473,0.0312 -1.843882,0.1711 -2.057765,0.43823 -0.07775,0.0973 -0.14835,0.51243 -0.156852,0.92287 -0.02358,1.13839 0.05624,1.17453 2.280375,1.03196 1.008922,-0.065 2.251862,-0.18384 2.762072,-0.2649 1.42387,-0.22621 3.811384,-0.16145 3.562011,0.0971 -0.157634,0.16324 -2.10861,0.42185 -4.016136,0.53237 -0.912701,0.0525 -1.897664,0.15241 -2.188819,0.22123 -0.291159,0.0688 -0.870867,0.20525 -1.288251,0.30291 -0.695749,0.16284 -0.764639,0.21194 -0.828098,0.58999 -0.06919,0.41236 0.0011,1.35746 0.108732,1.46139 0.108607,0.10489 4.84655,0.0293 6.332664,-0.0997 1.296204,-0.11325 1.493198,-0.10368 1.496264,0.072 0.0064,0.37154 -0.357764,0.52156 -1.445992,0.59587 -0.593011,0.0406 -1.134057,0.10934 -1.202323,0.15332 -0.06828,0.0432 -1.134741,0.10396 -2.369937,0.13412 -2.530179,0.0614 -2.717277,0.12506 -2.829271,0.97276 -0.128372,0.97091 -0.128408,0.97091 3.665575,0.94014 3.504701,-0.0282 4.097944,0 4.101766,0.22344 0.0047,0.2689 -0.569661,0.4336 -1.75779,0.504 -5.849431,0.3471 -6.067162,0.3861 -6.055065,1.0791 0.01201,0.6873 0.45443,0.8347 2.856737,0.9515 1.053164,0.051 1.522894,0.3204 1.034502,0.5926 -0.155951,0.087 -0.386417,0.1306 -0.512164,0.096 -0.686908,-0.1845 -2.289682,-0.1788 -2.720135,0.01 -0.410855,0.1802 -0.461866,0.263 -0.516552,0.8382 -0.06925,0.7284 -0.01433,0.9339 0.277968,1.0402 0.456075,0.166 2.693498,0.4254 3.545182,0.4109 0.791534,-0.013 0.901361,0.014 0.866077,0.218 -0.03564,0.2057 -0.275976,0.2465 -2.030312,0.3438 -1.094442,0.062 -2.119466,0.1594 -2.277822,0.2189 -0.376914,0.1421 -0.461745,0.4075 -0.347595,1.0876 0.117108,0.6976 0.475854,0.9158 1.290562,0.7849 0.705652,-0.1137 1.90709,0.1524 1.911811,0.4228 0.0025,0.1481 -0.295926,0.2122 -1.340815,0.2878 -1.654058,0.1188 -2.071785,0.333 -1.940116,0.9908 0.107858,0.5389 0.450518,0.7849 1.312978,0.9424 0.466953,0.087 0.692345,0.1947 0.725629,0.3527 0.04175,0.1981 -0.06775,0.2313 -0.808708,0.2441 -0.575988,0.01 -0.906981,0.077 -1.009413,0.2053 -0.19143,0.2391 -0.204183,0.946 -0.03857,2.1387 0.07085,0.5102 0.112707,0.9881 0.09295,1.0612 -0.01975,0.074 -0.03974,0.6718 -0.04444,1.3299 -0.0094,1.3094 -0.02391,1.3945 -0.348489,2.0341 l -0.221943,0.4374 0.372247,0.145 c 0.204734,0.08 1.030064,0.1454 1.834053,0.1458 1.76589,0 6.037578,0.179 7.779709,0.3241 1.824252,0.152 4.611669,0.1819 12.493968,0.1339 6.719705,-0.039 6.992557,-0.031 7.427121,0.2215 0.248132,0.1451 0.723037,0.31 1.055344,0.3661 0.931448,0.1572 1.200214,0.5281 0.829636,1.1453 -0.112561,0.1875 -0.108915,0.3964 0.0149,0.8542 0.09014,0.3331 0.167026,0.7853 0.170846,1.0041 0.0037,0.2191 0.06837,0.4349 0.143425,0.4794 0.07507,0.045 0.0919,0.1526 0.03742,0.2399 -0.127814,0.2046 -0.106144,1.5541 0.02489,1.5518 0.05479,0 0.100749,0.061 0.1021,0.1389 0.0014,0.078 -0.04286,0.1138 -0.09826,0.082 -0.05537,-0.031 -0.09305,0.876 -0.08374,2.0201 0.0206,2.5235 -0.08514,4.2443 -0.360973,5.8737 -0.06825,0.4032 -0.12595,1.9159 -0.128241,3.3616 -0.0022,1.4456 -0.04863,2.7021 -0.102974,2.7924 -0.05435,0.091 -0.07349,0.5377 -0.04255,0.9937 0.03692,0.5445 0.0056,0.8306 -0.09122,0.8322 -0.09006,0 -0.113556,0.1284 -0.06036,0.3256 0.04793,0.1779 0.04073,0.4013 -0.016,0.497 -0.0567,0.097 -0.08474,0.3533 -0.06227,0.5731 0.02247,0.2201 -0.03684,0.5095 -0.131809,0.6436 -0.123489,0.1744 -0.144691,0.4775 -0.07445,1.0645 0.05403,0.4514 0.07358,0.8675 0.04345,0.925 -0.03014,0.058 -0.04732,0.9368 -0.03823,1.9545 0.01177,1.3176 0.0694,1.9452 0.200206,2.1796 0.158776,0.2848 0.153248,0.3775 -0.0408,0.6852 -0.182253,0.289 -0.205216,0.5216 -0.122127,1.2374 0.124518,1.0725 -0.01538,1.33 -0.768934,1.4148 -1.246532,0.14 -1.994431,0.2965 -2.080579,0.4346 -0.05849,0.094 -0.65689,0.1581 -1.635843,0.1752 -0.848986,0.015 -1.55378,0.016 -1.56614,0.01 z m 2.76885,-3.565 c 0.471541,-0.082 0.86853,-0.1616 0.882204,-0.1761 0.01367,-0.014 0.03855,-1.1032 0.0553,-2.419 0.01674,-1.3161 0.101659,-3.3506 0.188725,-4.5216 0.08706,-1.171 0.158281,-2.2187 0.158262,-2.3283 -2.56e-4,-1.7828 0.07681,-4.3051 0.176762,-5.7838 0.06923,-1.0244 0.131954,-2.6778 0.139368,-3.6741 0.0074,-0.9962 0.05186,-2.0436 0.09876,-2.3272 0.04689,-0.2838 0.07394,-1.5809 0.0601,-2.8823 -0.02347,-2.2079 -0.04329,-2.3824 -0.295106,-2.6055 -0.419971,-0.3717 -1.224009,-0.4422 -4.658253,-0.4075 -5.670607,0.057 -14.460194,-0.035 -15.418046,-0.1626 -0.512817,-0.067 -1.350888,-0.1179 -1.862393,-0.1111 -0.511471,0.01 -1.977919,-0.068 -3.258695,-0.1659 -2.098021,-0.1606 -2.703387,-0.1533 -6.111659,0.073 -6.212609,0.4122 -13.878071,0.4455 -17.872309,0.077 -0.366034,-0.033 -2.519636,-0.08 -4.7857808,-0.1006 -2.2661257,-0.019 -4.420357,-0.1015 -4.7871421,-0.1783 -0.3667836,-0.077 -1.1639467,-0.1626 -1.7714727,-0.1907 -0.9319837,-0.043 -1.1442491,-0.014 -1.3583945,0.1866 -0.14836148,0.1389 -0.20815888,0.2976 -0.14393845,0.3818 0.0604186,0.079 0.10604965,0.2338 0.10139625,0.3435 -0.0200799,0.4729 0.8865488,0.6839 3.464859,0.8065 1.0750014,0.051 2.7587697,0.3946 2.6695834,0.5447 -0.033343,0.058 -1.3882839,0.1366 -3.0109608,0.1788 -1.6226729,0.041 -2.9997249,0.1085 -3.0601029,0.1475 -0.16241633,0.1042 -0.060221,2.1382 0.1183554,2.3557 0.1181313,0.1437 0.7181519,0.1956 2.6124971,0.2258 1.3525261,0.021 2.9678983,0.064 3.5897107,0.098 0.6218028,0.03 1.3551847,0.067 1.6296957,0.08 0.2745346,0.013 0.539497,0.062 0.5888455,0.1098 0.049354,0.048 0.2143574,0.091 0.3666684,0.093 0.6261138,0.015 -0.5520961,0.2589 -1.6393229,0.3395 -2.5866703,0.1915 -4.2612674,0.3014 -5.5307649,0.3622 -0.7398185,0.035 -1.4038606,0.1026 -1.4756431,0.1484 -0.1933445,0.1244 -0.089693,1.2859 0.1261772,1.4142 0.1011152,0.059 0.6963716,0.1419 1.3227676,0.1819 0.6263975,0.039 1.2588863,0.096 1.4055343,0.1215 0.4445996,0.082 4.835024,-0.012 4.9819579,-0.1079 0.2242172,-0.1438 1.9582117,0.2012 2.2931407,0.4566 l 0.309821,0.2361 -0.3429,-0.072 c -0.188586,-0.04 -0.739285,0.026 -1.223769,0.1482 -0.5779429,0.1448 -1.875142,0.2626 -3.771979,0.3425 -4.2757123,0.1803 -4.9844285,0.2518 -5.1793982,0.5216 -0.090778,0.1258 -0.132424,0.3094 -0.092545,0.4083 0.039877,0.099 0.074861,0.3144 0.077741,0.4793 0.0092,0.5274 0.4730109,0.6001 3.5041941,0.5494 2.8023855,-0.049 3.3796314,0.022 3.5203409,0.4258 0.1202388,0.3445 -0.5693124,0.5001 -2.5635934,0.5783 -1.8265775,0.072 -4.0756487,0.3077 -4.2986582,0.451 -0.1488563,0.097 -0.2288259,1.4327 -0.1151598,1.9253 l 0.1068726,0.4633 4.3791512,-0.043 c 2.408558,-0.023 4.4990655,-0.026 4.6456185,-0.01 0.928204,0.1327 1.289432,0.4052 0.706978,0.5331 -0.912417,0.2003 -1.4282714,0.251 -3.4823932,0.3417 -1.2415638,0.055 -2.6155058,0.1387 -3.0532192,0.1859 -0.4377045,0.047 -1.3242686,0.12 -1.9701111,0.1628 -0.6458506,0.042 -1.25468,0.1456 -1.3529456,0.2302 -0.1111653,0.097 -0.1708153,0.4125 -0.1578854,0.8391 0.030174,0.9952 0.2452242,1.111 2.2108292,1.1909 1.6000109,0.064 2.17919,0.1718 2.1832136,0.4024 0.00347,0.1982 -0.508624,0.3228 -1.3162001,0.3203 -0.8060488,0 -2.4711139,0.2566 -2.7981291,0.4349 -0.1304663,0.071 -0.2126655,0.3265 -0.2254867,0.7005 -0.031581,0.9213 0.1719719,0.9913 2.6204094,0.8997 2.2004374,-0.082 3.0202815,0.066 2.939838,0.5313 -0.032983,0.1908 -0.265628,0.2458 -1.4313514,0.3388 -3.7873156,0.3017 -4.0959885,0.3682 -4.1233227,0.8871 -0.064058,1.2152 0.067249,1.2802 2.5086435,1.2427 2.0562364,-0.035 2.5871763,0.081 2.4308992,0.5092 -0.05426,0.1493 -0.5140456,0.2034 -2.2083212,0.2599 -2.3618726,0.078 -2.8007731,0.179 -2.8056533,0.6393 -0.00174,0.1661 -0.018935,0.4969 -0.038168,0.7347 -0.01923,0.2379 0.017888,0.4316 0.082441,0.4305 0.064576,0 0.1189216,0.085 0.1207896,0.192 0.00921,0.5277 0.8606973,0.8379 2.8085511,1.0234 1.3586899,0.1298 2.4559985,0.2675 4.0620589,0.5113 1.3905444,0.2108 2.24113,0.2339 6.527085,0.1758 3.093282,-0.043 5.021618,-0.1176 5.179121,-0.205 0.138033,-0.074 1.026947,-0.2187 1.975396,-0.3168 0.948439,-0.1 1.933049,-0.2188 2.188007,-0.2677 1.097193,-0.2107 9.659361,-0.269 11.094971,-0.076 0.512832,0.069 1.948918,0.1194 3.191305,0.1118 3.23766,-0.02 7.126668,0.097 9.240684,0.2776 1.449684,0.1238 13.0088,-0.07 13.945517,-0.2333 z m -51.457964,-5.7242 c -0.5918901,-0.132 -1.02259,-0.3846 -0.9277552,-0.5443 0.086769,-0.146 0.4560569,-0.1166 1.5849112,0.1265 0.366819,0.08 0.816957,0.1722 1.000293,0.2074 0.311985,0.058 0.316463,0.072 0.06953,0.1768 -0.321856,0.1375 -1.184684,0.1546 -1.727041,0.029 z m 0.113379,-3.2682 c -0.02094,-0.017 -0.480169,-0.057 -1.0205216,-0.089 -1.104652,-0.064 -1.3657873,-0.202 -1.0358323,-0.5437 0.1664091,-0.1724 0.3637459,-0.2098 0.8457996,-0.1603 0.345821,0.035 1.3617793,0.093 2.2576973,0.1248 1.200967,0.042 1.629736,0.1051 1.631954,0.2322 0.0017,0.095 -0.127822,0.2164 -0.287724,0.2702 -0.272773,0.092 -2.30853,0.2327 -2.391378,0.1653 z m 2.945939,-0.3748 c -0.0039,-0.2274 0.26339,-0.3011 0.798372,-0.2204 0.727845,0.1098 0.664288,0.2562 -0.132447,0.3049 -0.365038,0.023 -0.664718,-0.015 -0.665923,-0.084 z m 2.449559,-3.0409 c -0.03724,-0.034 -0.405856,-0.066 -0.819162,-0.07 -0.413307,0 -0.849682,-0.072 -0.969751,-0.1578 -0.200874,-0.1417 -0.20077,-0.1722 0.0013,-0.3814 0.120777,-0.125 0.349857,-0.2297 0.509066,-0.2323 0.38317,-0.01 1.903716,0.2982 2.484047,0.4983 0.401804,0.1385 0.42803,0.1727 0.203956,0.2648 -0.292915,0.1206 -1.307278,0.1768 -1.409444,0.079 z m 3.035288,-3.7387 c -0.273777,-0.064 -0.412144,-0.1949 -0.461372,-0.4302 -0.106085,-0.5067 0.185951,-0.5875 1.754897,-0.4851 0.766974,0.049 2.04063,0.082 2.830335,0.072 1.36705,-0.014 2.549902,0.1399 2.691379,0.3601 0.181412,0.2824 -5.867397,0.7114 -6.815239,0.4835 z m -8.220507,5e-4 c -0.113676,-0.1779 0.365475,-0.6264 0.799446,-0.7484 0.368695,-0.1036 1.739416,0.049 2.51398,0.2797 0.264083,0.078 0.264553,0.084 0.01908,0.2327 -0.300329,0.1817 -3.234407,0.3894 -3.33253,0.236 z m 4.897915,-3.086 c -0.04769,-0.075 -0.01219,-0.2625 0.07898,-0.4183 0.148814,-0.2542 0.240205,-0.2748 0.89801,-0.2004 0.402796,0.045 1.300103,0.064 1.994068,0.04 1.338824,-0.044 1.793241,0.07 1.494263,0.3809 -0.214257,0.2224 -4.332338,0.4045 -4.46531,0.1975 z m 8.456157,-0.3828 c -0.308253,-0.1182 -0.175436,-0.2949 0.294386,-0.3915 0.471596,-0.097 1.262199,0.1125 1.266092,0.3354 0.002,0.1219 -1.269562,0.1674 -1.560472,0.056 z m -9.549516,-2.7443 c -0.160614,-0.1585 -0.125563,-0.5523 0.05556,-0.6243 0.09075,-0.035 0.729693,-0.089 1.419929,-0.1138 0.690222,-0.026 1.297175,-0.076 1.348767,-0.1086 0.144808,-0.095 2.778795,0.185 2.780689,0.2935 0.0042,0.2491 -5.374955,0.7803 -5.604928,0.5536 z m 11.522691,-0.3847 c -0.745442,-0.044 -0.93959,-0.1032 -0.978319,-0.2892 -0.02657,-0.1278 0.03678,-0.2666 0.140807,-0.3085 0.359449,-0.1451 3.85874,0.063 3.918356,0.233 0.09767,0.2789 -1.465827,0.4639 -3.080844,0.3647 z m -5.489852,-2.3004 c -1.314494,-0.044 -1.351058,-0.061 -1.291319,-0.5118 0.042,-0.3177 3.465801,-0.1456 4.409172,0.2224 l 0.334499,0.1302 -0.370987,0.1111 c -0.387461,0.1165 -0.873493,0.1243 -3.081442,0.043 z m -9.468218,0.01 c -0.413779,-0.087 -0.568009,-0.1849 -0.571114,-0.3628 -0.0022,-0.134 0.07507,-0.2757 0.172032,-0.3148 0.176681,-0.071 3.210667,0.076 3.784597,0.1844 0.603009,0.1135 0.151833,0.2809 -1.057561,0.393 -0.677254,0.063 -1.350562,0.1375 -1.496235,0.1667 -0.145663,0.029 -0.519945,0 -0.831722,-0.066 z m 17.130272,-0.267 c -0.169481,-0.04 -0.305401,-0.1193 -0.302045,-0.1742 0.0032,-0.055 0.005,-0.1677 0.0034,-0.2508 -0.0019,-0.1068 0.257805,-0.1281 0.895755,-0.072 0.494109,0.042 1.50705,0.1087 2.250972,0.1449 0.743935,0.036 1.398033,0.11 1.453576,0.1639 0.05555,0.054 0.01635,0.1026 -0.08711,0.1072 -2.048724,0.1028 -3.97311,0.1395 -4.214559,0.084 z m 13.071624,-18.6978 c -0.54514,-0.087 -0.711024,-0.4631 -0.26969,-0.6116 0.340975,-0.1149 0.960988,0.1649 0.877006,0.3958 -0.03837,0.1054 0.03591,0.1339 0.216923,0.083 0.187194,-0.053 0.245729,-0.026 0.182924,0.079 -0.09782,0.1647 -0.259538,0.1733 -1.007164,0.054 z m -0.895724,-3.0124 c -0.202799,-0.1957 -0.05396,-0.2863 0.734173,-0.4465 1.078511,-0.2189 2.63213,0.01 2.425783,0.3564 -0.08384,0.141 -3.020438,0.2249 -3.159958,0.09 z m 3.812116,-5.81326 c -0.196299,-0.14271 -0.269634,-0.29469 -0.214861,-0.44524 0.06703,-0.18432 0.256442,-0.23163 0.976728,-0.2442 1.157797,-0.0201 2.403554,0.20579 2.407586,0.43675 0.0057,0.32606 -0.518577,0.47117 -1.69855,0.47032 -0.864185,-0.001 -1.251326,-0.058 -1.470903,-0.21763 z m 2.60112,-3.23417 c -0.531448,-0.32379 1.289573,-0.59771 1.882203,-0.2832 0.28725,0.15245 0.285217,0.15736 -0.104007,0.25182 -0.590137,0.1433 -1.56615,0.16055 -1.778196,0.0315 z m 8.298995,-2.53788 c -0.575237,-0.0342 -1.111274,-0.14045 -1.24331,-0.24655 -0.216688,-0.17407 -0.21166,-0.19756 0.07572,-0.35466 0.214349,-0.1171 0.489353,-0.13635 0.905679,-0.0632 0.328828,0.0579 1.076174,0.0995 1.66078,0.0936 1.644406,-0.0168 2.17136,0.21158 1.171657,0.50817 -0.517483,0.15343 -0.891972,0.16266 -2.570515,0.0632 z m -7.059909,0.037 c -0.02078,-0.02 -0.663105,-0.0605 -1.427389,-0.0897 -0.764298,-0.0298 -1.44491,-0.10667 -1.512489,-0.17193 -0.235398,-0.22735 0.682199,-0.58269 1.34531,-0.52103 0.96163,0.089 2.195452,0.38544 2.249887,0.5397 0.04276,0.12112 -0.552815,0.34197 -0.655319,0.24291 z"
       id="path8591"
       inkscape:connector-curvature="0" />
  </g>
</svg>
